<svg width="3000" height="164" viewBox="0 0 3000 164" fill="none" xmlns="http://www.w3.org/2000/svg">
<path d="M2471 115.407L2553 114.13C2566.34 112.523 2600.2 107.21 2629 98.8103C2665 88.3102 2728 80.9911 2756 88.3104C2784 95.6297 2874.5 100.81 2882.5 91.3104C2890.5 81.8108 2910 88.3104 2918 88.3104C2926 88.3104 2937.5 92.4489 2951 95.6296C2961.8 98.1742 2978.17 98.8103 2985 98.8103L3000 98.8145L3000 123.5L3000 164L0 164L3.52889e-06 123.634L5.69801e-06 98.8221C8.50001 98.8221 31.3296 100.95 46.5 100C65.5 98.8103 53.0029 85.0475 86.5029 81.8109C120.003 78.5743 121.503 66.3596 146.503 69.3109C171.503 72.2621 167.003 88.3102 194.503 98.8103C222.003 109.31 263.003 98.8103 282.503 98.8103C302.003 98.8103 319.503 123.629 338.003 123.629C356.503 123.629 357.003 110.172 378.503 98.8103C400.003 87.449 398.003 110.244 419.503 111.947C441.003 113.649 448.503 123.629 483.003 123.629L539.503 123.629L595.003 123.629C629.496 123.629 661.131 118.62 710.003 114.129C721.583 113.065 769.998 115.585 778.503 114.129C805.909 109.438 802.742 109.023 826.003 98.8103C836.508 94.1982 865.844 91.7849 875.503 88.3104C887.769 83.898 905.1 56.8108 916.003 56.8108C927.744 56.8108 932.922 62.5662 949.003 66.3596C954.706 67.7048 961.779 68.8033 971.003 69.3109C990.682 70.3937 988.912 79.1806 1008.5 81.8109L1052 85.0475C1063.15 85.6699 1065.88 94.8117 1077 95.6295C1100.04 97.3235 1136.51 107.563 1144 111.947C1155.72 118.8 1165.57 107.153 1210.5 110.244C1222.94 111.099 1236.9 110.937 1251.5 110.631C1258.88 110.477 1266.42 110.286 1274 110.171C1282.66 110.041 1291.38 110.009 1300 110.244C1306.42 110.419 1317.47 115.362 1324 115.503C1330.3 115.639 1345.64 117.704 1352 117.811C1357.98 117.911 1364.49 115.154 1370.5 115.23C1375.96 115.299 1378.03 114.221 1383.5 114.271C1387.54 114.307 1394.97 115.476 1399 115.503C1404.7 115.541 1412.27 110.565 1421 110.244C1426.6 110.038 1432.66 114.569 1439 114.271C1445.29 113.975 1451.85 115.849 1458.5 115.503C1462.49 115.296 1466.5 112.879 1470.5 112.666C1475.04 112.425 1479.55 112.183 1484 111.947C1490.73 111.589 1501.8 112.975 1508 112.666C1522.27 111.953 1522.1 109.696 1530 109.629C1560.64 109.371 1559.91 115.96 1583.5 115.407C1598.84 113.907 1617.5 109.629 1629.5 109.629C1644.5 109.629 1661.23 72.9711 1669.5 68.3104C1682.5 60.9911 1702.75 58.7102 1714 50.1295C1729.5 38.3102 1731.5 19.6293 1750 19.6293C1768.5 19.6293 1770.5 13.3101 1790 2.81C1799.58 -2.3457 1817.3 4.76689 1831 7.81C1845.21 10.9645 1858.52 23.0885 1863 24.3101C1876.5 27.9909 1915 33.1294 1922.5 50.1295C1930 67.1296 1977.5 68.1296 1983.5 83.1297C1989.5 98.1298 2055 95.6296 2056.5 95.6296C2058 95.6296 2122.5 109.63 2142 109.63C2161.5 109.63 2226.5 114.13 2241.5 114.13C2256.5 114.13 2263.5 115.13 2269.5 114.13C2275.5 113.13 2298 101.31 2303 91.3104C2308 81.3103 2318.25 80.3263 2326.5 73.8104C2334.5 67.4911 2333.5 63.3103 2347.5 63.3103C2358.7 63.3103 2374 62.477 2377 65.8103L2391.5 83.1297L2414.5 95.6296L2443 109.63L2471 115.407Z" fill="#F4F1E5"/>
</svg>
